<?xml version="1.0" encoding="iso-8859-1"?>
<!-- Generator: Adobe Illustrator 19.0.0, SVG Export Plug-In . SVG Version: 6.00 Build 0)  -->
<svg version="1.1" id="Layer_1" xmlns="http://www.w3.org/2000/svg" xmlns:xlink="http://www.w3.org/1999/xlink" x="0px" y="0px"
	 viewBox="0 0 512 512" style="enable-background:new 0 0 512 512;" xml:space="preserve">
<g>
	<g>
		<path d="M85.333,64.001C73.557,64.001,64,73.558,64,85.334s9.557,21.333,21.333,21.333s21.333-9.557,21.333-21.333
			S97.109,64.001,85.333,64.001z"/>
	</g>
</g>
<g>
	<g>
		<path d="M149.333,64.001c-11.776,0-21.333,9.557-21.333,21.333s9.557,21.333,21.333,21.333s21.333-9.557,21.333-21.333
			S161.109,64.001,149.333,64.001z"/>
	</g>
</g>
<g>
	<g>
		<path d="M213.333,64.001c-11.776,0-21.333,9.557-21.333,21.333s9.557,21.333,21.333,21.333s21.333-9.557,21.333-21.333
			S225.109,64.001,213.333,64.001z"/>
	</g>
</g>
<g>
	<g>
		<path d="M128,213.334c-23.573,0-42.667,19.093-42.667,42.667c0,23.574,19.093,42.667,42.667,42.667
			c23.573,0,42.667-19.093,42.667-42.667C170.667,232.427,151.573,213.334,128,213.334z"/>
	</g>
</g>
<g>
	<g>
		<path d="M490.667,0.001H21.333C9.551,0.001,0,9.552,0,21.334v128v341.333c0,0.703,0.037,1.405,0.106,2.105
			c0.031,0.315,0.09,0.621,0.135,0.933c0.054,0.377,0.098,0.756,0.173,1.13c0.071,0.358,0.169,0.704,0.258,1.055
			c0.081,0.324,0.152,0.649,0.249,0.969c0.104,0.344,0.233,0.677,0.354,1.013c0.115,0.32,0.22,0.642,0.35,0.957
			s0.284,0.616,0.429,0.923c0.153,0.324,0.297,0.651,0.467,0.969c0.158,0.294,0.337,0.573,0.508,0.859
			c0.186,0.311,0.362,0.627,0.565,0.931c0.211,0.316,0.446,0.612,0.673,0.916c0.19,0.254,0.366,0.514,0.569,0.761
			c0.443,0.54,0.91,1.059,1.403,1.552c0.004,0.004,0.006,0.008,0.01,0.011c0.004,0.004,0.008,0.007,0.012,0.011
			c0.493,0.492,1.012,0.959,1.551,1.402c0.247,0.203,0.507,0.379,0.76,0.568c0.304,0.227,0.601,0.463,0.917,0.674
			c0.303,0.203,0.618,0.379,0.93,0.565c0.286,0.171,0.565,0.35,0.86,0.508c0.318,0.17,0.645,0.314,0.969,0.467
			c0.307,0.145,0.609,0.298,0.923,0.428c0.315,0.13,0.636,0.235,0.956,0.35c0.337,0.121,0.67,0.25,1.015,0.355
			c0.32,0.097,0.645,0.168,0.968,0.249c0.351,0.089,0.698,0.187,1.056,0.258c0.375,0.074,0.753,0.118,1.13,0.172
			c0.311,0.044,0.618,0.104,0.933,0.135c0.7,0.069,1.402,0.106,2.104,0.106h0.001h469.333c11.782,0,21.333-9.551,21.333-21.333
			V362.669c0-0.001,0-0.002,0-0.003V149.334v-128C512,9.552,502.449,0.001,490.667,0.001z M469.333,469.334H72.837L192,350.171
			l70.248,70.248c8.331,8.331,21.839,8.331,30.17,0c8.331-8.331,8.331-21.839,0-30.17l-6.248-6.248l97.83-97.83l85.333,85.333
			V469.334z M469.334,311.165l-70.248-70.248c-8.331-8.331-21.839-8.331-30.17,0L256,353.831l-48.915-48.915
			c-8.331-8.331-21.839-8.331-30.17,0L42.667,439.164V170.668h426.667V311.165z M469.334,128.001H42.667V42.668h426.667V128.001z"/>
	</g>
</g>
<g>
</g>
<g>
</g>
<g>
</g>
<g>
</g>
<g>
</g>
<g>
</g>
<g>
</g>
<g>
</g>
<g>
</g>
<g>
</g>
<g>
</g>
<g>
</g>
<g>
</g>
<g>
</g>
<g>
</g>
</svg>
